<svg width="84" height="26" viewBox="0 0 84 26" fill="none" xmlns="http://www.w3.org/2000/svg">
<g clip-path="url(#clip0_289_109)">
<path d="M10.5075 9.27727V12.0545H17.2923C17.1122 13.5909 16.5718 14.7727 15.7312 15.5409C14.7705 16.4864 13.2094 17.55 10.5075 17.55C6.36455 17.55 3.12223 14.2409 3.12223 10.1636C3.12223 6.08636 6.3045 2.77727 10.5075 2.77727C12.7291 2.77727 14.4103 3.66364 15.6111 4.78636L17.5926 2.83636C15.9114 1.24091 13.6297 0 10.5075 0C4.80343 0 0 4.55 0 10.1636C0 15.7773 4.80343 20.3273 10.5075 20.3273C13.5697 20.3273 15.9114 19.3227 17.7127 17.4909C19.574 15.6591 20.1744 13.0591 20.1744 10.9909C20.1744 10.3409 20.1144 9.75 20.0543 9.27727H10.5075Z" fill="#4285F4"/>
<path d="M28.5803 6.97266C24.9177 6.97266 21.8555 9.74993 21.8555 13.5317C21.8555 17.3136 24.8576 20.0908 28.5803 20.0908C32.3029 20.0908 35.3051 17.3727 35.3051 13.5908C35.3051 9.74993 32.3029 6.97266 28.5803 6.97266ZM28.5803 17.5499C26.5388 17.5499 24.7976 15.8954 24.7976 13.5908C24.7976 11.2272 26.5388 9.63175 28.5803 9.63175C30.6217 9.63175 32.363 11.2272 32.363 13.5908C32.363 15.8954 30.6217 17.5499 28.5803 17.5499Z" fill="#EA4335"/>
<path d="M61.4237 8.44993H61.3036C60.6431 7.68175 59.3822 6.97266 57.7611 6.97266C54.3987 6.97266 51.5166 9.80902 51.5166 13.5317C51.5166 17.1954 54.3987 20.0908 57.7611 20.0908C59.3822 20.0908 60.6431 19.3817 61.3036 18.6136H61.4237V19.559C61.4237 22.0408 60.0427 23.3999 57.8811 23.3999C56.0799 23.3999 54.9991 22.159 54.5187 21.0363L51.9969 22.0999C52.7175 23.8136 54.6989 25.9999 57.9412 25.9999C61.3636 25.9999 64.3057 23.9908 64.3057 19.1454V7.3272H61.5438V8.44993H61.4237ZM58.0613 17.5499C56.0198 17.5499 54.5187 15.8363 54.5187 13.5908C54.5187 11.2863 56.0799 9.63175 58.0613 9.63175C60.0427 9.63175 61.6038 11.3454 61.6038 13.6499C61.6638 15.8954 60.1027 17.5499 58.0613 17.5499Z" fill="#4285F4"/>
<path d="M43.531 6.97266C39.8683 6.97266 36.8062 9.74993 36.8062 13.5317C36.8062 17.3136 39.8083 20.0908 43.531 20.0908C47.2536 20.0908 50.2558 17.3727 50.2558 13.5908C50.2558 9.74993 47.2536 6.97266 43.531 6.97266ZM43.531 17.5499C41.4895 17.5499 39.7483 15.8954 39.7483 13.5908C39.7483 11.2272 41.4895 9.63175 43.531 9.63175C45.5724 9.63175 47.3137 11.2272 47.3137 13.5908C47.3137 15.8954 45.5724 17.5499 43.531 17.5499Z" fill="#FBBC05"/>
<path d="M66.5273 0.29541H69.4094V20.15H66.5273V0.29541Z" fill="#34A853"/>
<path d="M78.2961 17.5499C76.795 17.5499 75.7743 16.8999 75.0538 15.5408L84.0002 11.9363L83.7 11.1681C83.1596 9.69084 81.4184 6.97266 77.9959 6.97266C74.5735 6.97266 71.6914 9.63175 71.6914 13.5317C71.6914 17.1954 74.5134 20.0908 78.2961 20.0908C81.3583 20.0908 83.0996 18.259 83.8801 17.1954L81.5985 15.7181C80.8179 16.8408 79.7972 17.5499 78.2961 17.5499ZM78.116 9.45447C79.3169 9.45447 80.3376 10.0454 80.6378 10.8727L74.6335 13.3545C74.5735 10.6363 76.6149 9.45447 78.116 9.45447Z" fill="#EA4335"/>
</g>
<defs>
<clipPath id="clip0_289_109">
<rect width="84" height="26" fill="white"/>
</clipPath>
</defs>
</svg>
