<svg width="105" height="25" viewBox="0 0 105 25" fill="none" xmlns="http://www.w3.org/2000/svg">
<g clip-path="url(#clip0_289_117)">
<path d="M103.524 23.3862C103.589 23.3869 103.653 23.3746 103.712 23.3501C103.771 23.3256 103.825 23.2895 103.87 23.2439C103.914 23.1984 103.949 23.1444 103.971 23.0854C103.993 23.0263 104.003 22.9634 103.999 22.9006C103.999 22.5562 103.786 22.3916 103.349 22.3916H102.642V24.1949H102.908V23.4088H103.234L103.242 23.4184L103.749 24.1949H104.033L103.488 23.3912L103.524 23.3862ZM103.217 23.2056H102.909V22.596H103.299C103.501 22.596 103.731 22.6281 103.731 22.8857C103.731 23.1819 103.498 23.2056 103.215 23.2056" fill="#0A66C2"/>
<path d="M0 3.66895H3.92242V17.5991H11.184V21.1283H0V3.66895Z" fill="#0A66C2"/>
<path d="M12.918 9.29024H16.6861V21.1217H12.918V9.29024ZM14.802 3.4082C15.2344 3.40828 15.657 3.53334 16.0164 3.76757C16.3758 4.0018 16.6559 4.33468 16.8213 4.72411C16.9867 5.11355 17.0299 5.54206 16.9455 5.95546C16.8611 6.36885 16.6529 6.74856 16.3472 7.04658C16.0415 7.3446 15.652 7.54755 15.228 7.62975C14.8039 7.71195 14.3644 7.66972 13.965 7.5084C13.5656 7.34708 13.2243 7.07392 12.9841 6.72345C12.7439 6.37298 12.6157 5.96094 12.6157 5.53944C12.6157 5.25953 12.6723 4.98236 12.7822 4.72376C12.892 4.46516 13.0531 4.2302 13.2561 4.03229C13.4591 3.83438 13.7002 3.67741 13.9654 3.57032C14.2307 3.46324 14.515 3.40815 14.802 3.4082Z" fill="#0A66C2"/>
<path d="M32.4492 3.66626H36.2174V14.1005L40.488 9.285H45.1079L40.1622 14.7625L45.0039 21.1268H40.2678L36.2676 15.2784H36.2182V21.126H32.45L32.4492 3.66626Z" fill="#0A66C2"/>
<path d="M18.7759 9.29143H22.3945V10.9083H22.4459C22.8073 10.3046 23.3302 9.80788 23.9586 9.47127C24.587 9.13466 25.2974 8.97078 26.0139 8.99713C29.8351 8.99713 30.5384 11.4483 30.5384 14.6327V21.1209H26.7703V15.3686C26.7703 13.9955 26.7444 12.2305 24.8077 12.2305C22.849 12.2305 22.5468 13.7257 22.5468 15.2688V21.1194H18.7786L18.7759 9.29143Z" fill="#0A66C2"/>
<path d="M53.0434 13.8298C53.0506 13.5317 52.9957 13.2354 52.882 12.9586C52.7682 12.6818 52.5981 12.4305 52.3818 12.2197C52.1655 12.009 51.9075 11.8432 51.6236 11.7325C51.3397 11.6218 51.0356 11.5685 50.7299 11.5757C50.0715 11.5358 49.4234 11.7497 48.9253 12.1713C48.4272 12.593 48.119 13.1886 48.0671 13.8298H53.0434ZM56.2354 19.0727C55.6092 19.8131 54.822 20.4083 53.9308 20.8155C53.0396 21.2226 52.0666 21.4314 51.0824 21.4267C47.3143 21.4267 44.2974 18.9744 44.2974 15.1769C44.2974 11.3794 47.3139 8.92822 51.0824 8.92822C54.6045 8.92822 56.8132 11.3775 56.8132 15.1769V16.3288H48.0671C48.176 16.9821 48.5234 17.575 49.0452 17.9983C49.5671 18.4216 50.2283 18.6467 50.907 18.6322C51.4433 18.629 51.9703 18.495 52.44 18.2425C52.9096 17.99 53.3071 17.6269 53.5961 17.1864L56.2354 19.0727Z" fill="#0A66C2"/>
<path d="M64.6672 12.1502C62.7831 12.1502 61.6526 13.3767 61.6526 15.1639C61.6526 16.9511 62.7827 18.1788 64.6672 18.1788C66.5517 18.1788 67.6845 16.9542 67.6845 15.1639C67.6845 13.3737 66.5536 12.1502 64.6672 12.1502ZM71.1535 21.1194H67.6845V19.5504H67.6331C67.1978 20.1211 66.6333 20.5861 65.9836 20.9093C65.3338 21.2324 64.6162 21.4049 63.8869 21.4133C60.2663 21.4133 57.8813 18.8657 57.8813 15.263C57.8813 11.9542 59.9919 8.91601 63.4614 8.91601C65.0208 8.91601 66.4775 9.332 67.332 10.4851H67.3814V3.66504H71.1531L71.1535 21.1194Z" fill="#0A66C2"/>
<path d="M96.5922 21.1263H92.8241V15.3728C92.8241 14.0008 92.799 12.2347 90.8643 12.2347C88.9017 12.2347 88.6014 13.7295 88.6014 15.2729V21.1259H84.8332V9.29445H88.4506V10.9113H88.5013C88.8633 10.3078 89.3864 9.81138 90.015 9.47482C90.6435 9.13827 91.3539 8.97422 92.0705 9.00016C95.8897 9.00016 96.5938 11.4494 96.5938 14.6357L96.5922 21.1263ZM80.5815 7.67718C80.149 7.67725 79.7262 7.55229 79.3665 7.31808C79.0069 7.08388 78.7266 6.75095 78.561 6.36141C78.3954 5.97187 78.352 5.5432 78.4363 5.12962C78.5206 4.71604 78.7288 4.33612 79.0346 4.0379C79.3403 3.73968 79.7299 3.53656 80.1541 3.45422C80.5783 3.37188 81.0179 3.41402 81.4175 3.57532C81.8171 3.73662 82.1587 4.00982 82.399 4.36038C82.6394 4.71095 82.7677 5.12313 82.7678 5.54479C82.7678 5.82477 82.7113 6.10202 82.6015 6.3607C82.4916 6.61939 82.3306 6.85445 82.1276 7.05246C81.9246 7.25047 81.6835 7.40755 81.4183 7.51474C81.153 7.62193 80.8686 7.67713 80.5815 7.67718ZM82.4655 21.1263H78.6935V9.29445H82.4655V21.1263ZM98.4708 0.00144514H76.8C76.3081 -0.0039667 75.8341 0.181234 75.4822 0.51635C75.1304 0.851466 74.9293 1.30908 74.9233 1.78863V23.0049C74.9291 23.4847 75.13 23.9426 75.4819 24.2781C75.8338 24.6136 76.3079 24.7991 76.8 24.794H98.4708C98.9639 24.8 99.4393 24.615 99.7926 24.2796C100.146 23.9441 100.348 23.4857 100.355 23.0049V1.7871C100.348 1.3066 100.146 0.848463 99.7922 0.513355C99.439 0.178248 98.9637 -0.00642356 98.4708 -8.62605e-05" fill="#0A66C2"/>
<path d="M103.249 21.5884C102.791 21.5927 102.353 21.7738 102.031 22.0922C101.709 22.4105 101.53 22.8402 101.532 23.2872C101.534 23.7342 101.718 24.1621 102.043 24.4775C102.368 24.7928 102.807 24.9698 103.266 24.9698C103.724 24.9698 104.164 24.7928 104.489 24.4775C104.814 24.1621 104.998 23.7342 105 23.2872C105.002 22.8402 104.823 22.4105 104.501 22.0922C104.179 21.7738 103.741 21.5927 103.283 21.5884H103.249ZM103.249 24.7762C102.949 24.7811 102.653 24.6989 102.4 24.5401C102.147 24.3813 101.949 24.1529 101.829 23.8839C101.709 23.615 101.674 23.3174 101.728 23.0289C101.782 22.7404 101.922 22.4739 102.131 22.2631C102.34 22.0524 102.609 21.9068 102.902 21.8448C103.196 21.7828 103.503 21.8072 103.782 21.9149C104.062 22.0226 104.303 22.2087 104.474 22.4498C104.645 22.6909 104.739 22.976 104.744 23.2692C104.744 23.2776 104.744 23.2856 104.744 23.2941C104.753 23.6787 104.604 24.0508 104.331 24.3286C104.058 24.6064 103.683 24.7671 103.289 24.7755H103.25" fill="#0A66C2"/>
</g>
<defs>
<clipPath id="clip0_289_117">
<rect width="105" height="25" fill="white"/>
</clipPath>
</defs>
</svg>
