<svg width="1441" height="798" viewBox="0 0 1441 798" fill="none" xmlns="http://www.w3.org/2000/svg">
<path d="M558.827 0.5L0.11377 797.5" stroke="#B3B3B3" stroke-opacity="0.02"/>
<path d="M567.098 0.5L71.8358 797.5" stroke="#B3B3B3" stroke-opacity="0.02"/>
<path d="M575.369 0.5L133.883 797.5" stroke="#B3B3B3" stroke-opacity="0.02"/>
<path d="M583.64 0.5L188.56 797.5" stroke="#B3B3B3" stroke-opacity="0.02"/>
<path d="M591.912 0.5L237.504 797.5" stroke="#B3B3B3" stroke-opacity="0.02"/>
<path d="M600.183 0.5L281.911 797.5" stroke="#B3B3B3" stroke-opacity="0.02"/>
<path d="M608.454 0.5L322.679 797.5" stroke="#B3B3B3" stroke-opacity="0.02"/>
<path d="M616.725 0.5L360.492 797.5" stroke="#B3B3B3" stroke-opacity="0.02"/>
<path d="M624.996 0.5L395.886 797.5" stroke="#B3B3B3" stroke-opacity="0.02"/>
<path d="M633.267 0.5L429.284 797.5" stroke="#B3B3B3" stroke-opacity="0.02"/>
<path d="M641.538 0.5L461.031 797.5" stroke="#B3B3B3" stroke-opacity="0.02"/>
<path d="M649.809 0.5L491.406 797.5" stroke="#B3B3B3" stroke-opacity="0.02"/>
<path d="M658.081 0.5L520.645 797.5" stroke="#B3B3B3" stroke-opacity="0.02"/>
<path d="M666.352 0.5L548.944 797.5" stroke="#B3B3B3" stroke-opacity="0.02"/>
<path d="M674.623 0.5L576.475 797.5" stroke="#B3B3B3" stroke-opacity="0.02"/>
<path d="M682.894 0.5L603.387 797.5" stroke="#B3B3B3" stroke-opacity="0.02"/>
<path d="M691.165 0.5L629.81 797.5" stroke="#B3B3B3" stroke-opacity="0.02"/>
<path d="M699.436 0.5L655.866 797.5" stroke="#B3B3B3" stroke-opacity="0.02"/>
<path d="M707.707 0.5L681.666 797.5" stroke="#B3B3B3" stroke-opacity="0.02"/>
<path d="M715.978 0.5L707.336 797.5" stroke="#B3B3B3" stroke-opacity="0.02"/>
<path d="M724.249 0.5L732.892 797.5" stroke="#B3B3B3" stroke-opacity="0.02"/>
<path d="M732.52 0.5L758.561 797.5" stroke="#B3B3B3" stroke-opacity="0.02"/>
<path d="M740.792 0.5L784.361 797.5" stroke="#B3B3B3" stroke-opacity="0.02"/>
<path d="M749.063 0.5L810.417 797.5" stroke="#B3B3B3" stroke-opacity="0.02"/>
<path d="M757.334 0.5L836.841 797.5" stroke="#B3B3B3" stroke-opacity="0.02"/>
<path d="M765.605 0.5L863.752 797.5" stroke="#B3B3B3" stroke-opacity="0.02"/>
<path d="M773.876 0.5L891.283 797.5" stroke="#B3B3B3" stroke-opacity="0.02"/>
<path d="M782.147 0.5L919.583 797.5" stroke="#B3B3B3" stroke-opacity="0.02"/>
<path d="M790.418 0.5L948.821 797.5" stroke="#B3B3B3" stroke-opacity="0.02"/>
<path d="M798.689 0.5L979.197 797.5" stroke="#B3B3B3" stroke-opacity="0.02"/>
<path d="M806.96 0.5L1010.94 797.5" stroke="#B3B3B3" stroke-opacity="0.02"/>
<path d="M815.231 0.5L1044.34 797.5" stroke="#B3B3B3" stroke-opacity="0.02"/>
<path d="M823.502 0.5L1079.74 797.5" stroke="#B3B3B3" stroke-opacity="0.02"/>
<path d="M831.774 0.5L1117.55 797.5" stroke="#B3B3B3" stroke-opacity="0.02"/>
<path d="M840.045 0.5L1158.32 797.5" stroke="#B3B3B3" stroke-opacity="0.02"/>
<path d="M848.316 0.5L1202.72 797.5" stroke="#B3B3B3" stroke-opacity="0.02"/>
<path d="M856.587 0.5L1251.67 797.5" stroke="#B3B3B3" stroke-opacity="0.02"/>
<path d="M864.858 0.5L1306.34 797.5" stroke="#B3B3B3" stroke-opacity="0.02"/>
<path d="M873.129 0.5L1368.39 797.5" stroke="#B3B3B3" stroke-opacity="0.02"/>
<path d="M881.4 0.5L1440.11 797.5" stroke="#B3B3B3" stroke-opacity="0.02"/>
<path d="M558.827 0.5H881.4" stroke="#B3B3B3" stroke-opacity="0.02"/>
<path d="M558.827 0.5H881.4" stroke="#B3B3B3" stroke-opacity="0.02"/>
<path d="M558.827 0.500008H881.4" stroke="#B3B3B3" stroke-opacity="0.02"/>
<path d="M558.827 0.500008H881.4" stroke="#B3B3B3" stroke-opacity="0.02"/>
<path d="M558.827 0.500051H881.4" stroke="#B3B3B3" stroke-opacity="0.02"/>
<path d="M558.827 0.500223H881.401" stroke="#B3B3B3" stroke-opacity="0.02"/>
<path d="M558.826 0.501577H881.402" stroke="#B3B3B3" stroke-opacity="0.02"/>
<path d="M558.824 0.504898H881.404" stroke="#B3B3B3" stroke-opacity="0.02"/>
<path d="M558.819 0.512167H881.409" stroke="#B3B3B3" stroke-opacity="0.02"/>
<path d="M558.808 0.52799H881.42" stroke="#B3B3B3" stroke-opacity="0.02"/>
<path d="M558.786 0.558212H881.441" stroke="#B3B3B3" stroke-opacity="0.02"/>
<path d="M558.748 0.613163H881.48" stroke="#B3B3B3" stroke-opacity="0.02"/>
<path d="M558.681 0.708078H881.546" stroke="#B3B3B3" stroke-opacity="0.02"/>
<path d="M558.572 0.864412H881.656" stroke="#B3B3B3" stroke-opacity="0.02"/>
<path d="M558.398 1.1122H881.83" stroke="#B3B3B3" stroke-opacity="0.02"/>
<path d="M558.131 1.4923H882.096" stroke="#B3B3B3" stroke-opacity="0.02"/>
<path d="M557.734 2.05901H882.493" stroke="#B3B3B3" stroke-opacity="0.02"/>
<path d="M557.156 2.88312H883.071" stroke="#B3B3B3" stroke-opacity="0.02"/>
<path d="M556.335 4.05558H883.893" stroke="#B3B3B3" stroke-opacity="0.02"/>
<path d="M555.188 5.6914H885.04" stroke="#B3B3B3" stroke-opacity="0.02"/>
<path d="M553.616 7.93393H886.612" stroke="#B3B3B3" stroke-opacity="0.02"/>
<path d="M551.494 10.9603H888.733" stroke="#B3B3B3" stroke-opacity="0.02"/>
<path d="M548.672 14.9865H891.556" stroke="#B3B3B3" stroke-opacity="0.02"/>
<path d="M544.965 20.2743H895.263" stroke="#B3B3B3" stroke-opacity="0.02"/>
<path d="M540.154 27.137H900.074" stroke="#B3B3B3" stroke-opacity="0.02"/>
<path d="M533.978 35.9476H906.25" stroke="#B3B3B3" stroke-opacity="0.02"/>
<path d="M526.127 47.1466H914.1" stroke="#B3B3B3" stroke-opacity="0.02"/>
<path d="M516.24 61.2509H923.988" stroke="#B3B3B3" stroke-opacity="0.02"/>
<path d="M503.893 78.8632H936.335" stroke="#B3B3B3" stroke-opacity="0.02"/>
<path d="M488.597 100.683H951.631" stroke="#B3B3B3" stroke-opacity="0.02"/>
<path d="M469.787 127.515H970.441" stroke="#B3B3B3" stroke-opacity="0.02"/>
<path d="M446.814 160.286H993.413" stroke="#B3B3B3" stroke-opacity="0.02"/>
<path d="M418.937 200.052H1021.29" stroke="#B3B3B3" stroke-opacity="0.02"/>
<path d="M385.313 248.016H1054.91" stroke="#B3B3B3" stroke-opacity="0.02"/>
<path d="M344.987 305.541H1095.24" stroke="#B3B3B3" stroke-opacity="0.02"/>
<path d="M296.88 374.165H1143.35" stroke="#B3B3B3" stroke-opacity="0.02"/>
<path d="M239.78 455.618H1200.45" stroke="#B3B3B3" stroke-opacity="0.02"/>
<path d="M172.328 551.838H1267.9" stroke="#B3B3B3" stroke-opacity="0.02"/>
<path d="M93.003 664.994H1347.22" stroke="#B3B3B3" stroke-opacity="0.02"/>
<path d="M0.113739 797.5H1440.11" stroke="#B3B3B3" stroke-opacity="0.02"/>
</svg>
