<svg width="1348" height="441" viewBox="0 0 1348 441" fill="none" xmlns="http://www.w3.org/2000/svg">
<path opacity="0.21" d="M1312 0C1321.39 29.8631 1329.15 60.5188 1335.18 91.3965C1346.38 151.763 1354.28 214.922 1339.48 275.272C1331.96 304.843 1314.3 334.695 1284.49 345.655C1255.11 356.749 1222.87 351.143 1193.39 341.854C1036.57 295.541 935.403 156.275 792.86 84.5716C741.051 60.4009 679.412 60.4951 627.189 83.9452C423.078 173.597 326.079 472.631 78.9214 438.17C49.1271 427.91 22.9745 409.328 0 387.5C23.02 409.28 49.204 427.799 78.9829 437.99C325.737 472.008 422.16 173.195 626.811 83.0548C679.196 59.4889 741.269 59.3806 793.261 83.6556C936.256 155.64 1037.08 294.751 1193.61 341.146C1223.01 350.447 1255.11 356.038 1284.26 345.064C1313.83 334.238 1331.44 304.635 1338.99 275.142C1353.85 214.968 1346.07 151.8 1335 91.4327C1329.02 60.5507 1321.32 29.8829 1312 0Z" fill="url(#paint0_linear_53_5572)"/>
<defs>
<linearGradient id="paint0_linear_53_5572" x1="1347.23" y1="223.22" x2="0" y2="223.22" gradientUnits="userSpaceOnUse">
<stop stop-color="white"/>
<stop offset="1" stop-color="#FFB600"/>
</linearGradient>
</defs>
</svg>
