<svg width="1348" height="441" viewBox="0 0 1348 441" fill="none" xmlns="http://www.w3.org/2000/svg">
<path opacity="0.21" d="M35.5891 0C26.2016 29.8631 18.4393 60.5188 12.4046 91.3965C1.21352 151.763 -6.69184 214.922 8.10631 275.272C15.6281 304.843 33.2886 334.695 63.1026 345.655C92.4747 356.749 124.724 351.143 154.203 341.854C311.019 295.541 412.186 156.275 554.729 84.5716C606.537 60.4009 668.177 60.4951 720.4 83.9452C924.511 173.597 1021.51 472.631 1268.67 438.17C1298.46 427.91 1324.61 409.328 1347.59 387.5C1324.57 409.28 1298.38 427.799 1268.61 437.99C1021.85 472.008 925.429 173.195 720.778 83.0548C668.393 59.4889 606.32 59.3806 554.328 83.6556C411.333 155.64 310.51 294.751 153.976 341.146C124.583 350.447 92.4774 356.038 63.3307 345.064C33.7559 334.238 16.1457 304.635 8.59403 275.142C-6.26188 214.968 1.51429 151.8 12.5911 91.4327C18.5655 60.5507 26.2653 29.8829 35.5891 0Z" fill="url(#paint0_linear_53_5571)"/>
<defs>
<linearGradient id="paint0_linear_53_5571" x1="0.358398" y1="223.22" x2="1347.59" y2="223.22" gradientUnits="userSpaceOnUse">
<stop stop-color="white"/>
<stop offset="1" stop-color="#FFB600"/>
</linearGradient>
</defs>
</svg>
